<?xml version="1.0" encoding="UTF-8" standalone="no"?>
<svg width="18px" height="18px" viewBox="0 0 18 18" version="1.1" xmlns="http://www.w3.org/2000/svg" xmlns:xlink="http://www.w3.org/1999/xlink">
    <!-- Generator: Sketch 41.2 (35397) - http://www.bohemiancoding.com/sketch -->
    <title>google+</title>
    <desc>Created with Sketch.</desc>
    <defs></defs>
    <g id="Page-1" stroke="none" stroke-width="1" fill="none" fill-rule="evenodd">
        <g id="Footer" transform="translate(-1322.000000, -87.000000)" fill="#000000">
            <g transform="translate(64.000000, 50.000000)" id="Group-4">
                <g>
                    <g id="facebook" transform="translate(1152.000000, 37.000000)">
                        <g id="Group">
                            <g id="google+" transform="translate(106.000000, 0.000000)">
                                <g id="Google_x2B_">
                                    <path d="M0.989,4.589 C0.989,6.083 1.488,7.161 2.471,7.794 C3.277,8.314 4.211,8.392 4.697,8.392 C4.815,8.392 4.91,8.386 4.976,8.382 C4.976,8.382 4.822,9.386 5.566,10.378 L5.532,10.378 C4.243,10.378 0.039,10.647 0.039,14.105 C0.039,17.621 3.9,17.8 4.675,17.8 C4.736,17.8 4.772,17.798 4.772,17.798 C4.78,17.798 4.835,17.8 4.93,17.8 C5.427,17.8 6.712,17.738 7.905,17.157 C9.453,16.407 10.238,15.098 10.238,13.272 C10.238,11.508 9.042,10.458 8.169,9.69 C7.636,9.221 7.175,8.817 7.175,8.424 C7.175,8.024 7.512,7.723 7.937,7.342 C8.626,6.727 9.276,5.85 9.276,4.192 C9.276,2.735 9.087,1.756 7.922,1.135 C8.043,1.073 8.473,1.028 8.685,0.998 C9.316,0.912 10.239,0.814 10.239,0.299 L10.239,0.2 L5.64,0.2 C5.594,0.202 0.989,0.372 0.989,4.589 Z M8.413,13.602 C8.501,15.008 7.298,16.045 5.491,16.176 C3.656,16.311 2.146,15.485 2.058,14.08 C2.015,13.404 2.312,12.744 2.893,12.217 C3.482,11.684 4.291,11.354 5.171,11.289 C5.275,11.283 5.378,11.277 5.481,11.277 C7.18,11.278 8.33,12.276 8.413,13.602 Z M7.212,3.626 C7.663,5.214 6.982,6.872 5.896,7.179 C5.771,7.214 5.643,7.231 5.512,7.231 C4.518,7.231 3.533,6.225 3.167,4.838 C2.963,4.062 2.98,3.38 3.214,2.726 C3.443,2.081 3.857,1.648 4.377,1.501 C4.502,1.466 4.631,1.448 4.762,1.448 C5.962,1.448 6.734,1.946 7.212,3.626 Z M15,7 L15,4 L13,4 L13,7 L10,7 L10,9 L13,9 L13,12 L15,12 L15,9 L18,9 L18,7 L15,7 Z" id="Shape"></path>
                                </g>
                            </g>
                        </g>
                    </g>
                </g>
            </g>
        </g>
    </g>
</svg>